<svg width="177" height="74" viewBox="0 0 177 74" fill="none" xmlns="http://www.w3.org/2000/svg">
<path d="M80.8275 35.4613C80.2897 35.4613 79.8375 35.278 79.4708 34.9113C79.1041 34.5446 78.9208 34.0924 78.9208 33.5547V8.73153C78.9208 8.16931 79.1041 7.71709 79.4708 7.37487C79.8375 7.00821 80.2897 6.82488 80.8275 6.82488H89.5907C91.2529 6.82488 92.7074 7.15487 93.954 7.81487C95.2251 8.45042 96.2151 9.34263 96.924 10.4915C97.6573 11.6404 98.024 12.9604 98.024 14.4515C98.024 15.6492 97.694 16.737 97.034 17.7148C96.3984 18.6681 95.5184 19.4259 94.394 19.9881C96.0073 20.3792 97.3029 21.1492 98.2806 22.2981C99.2584 23.447 99.7473 24.9503 99.7473 26.808C99.7473 28.4947 99.344 29.9858 98.5373 31.2813C97.7551 32.5769 96.6551 33.6035 95.2373 34.3613C93.8196 35.0946 92.194 35.4613 90.3607 35.4613H80.8275ZM82.7341 31.9413H90.3607C91.4851 31.9413 92.4751 31.7458 93.3307 31.3547C94.1862 30.9636 94.8584 30.3891 95.3473 29.6314C95.8362 28.8736 96.0807 27.9325 96.0807 26.808C96.0807 25.7569 95.8362 24.8892 95.3473 24.2047C94.8584 23.5203 94.1862 23.007 93.3307 22.6647C92.4751 22.2981 91.4851 22.1147 90.3607 22.1147H82.7341V31.9413ZM82.7341 18.5948H89.5907C90.984 18.5948 92.1207 18.2526 93.0007 17.5681C93.9051 16.8837 94.3573 15.8448 94.3573 14.4515C94.3573 13.0582 93.9051 12.0315 93.0007 11.3715C92.1207 10.6871 90.984 10.3448 89.5907 10.3448H82.7341V18.5948ZM113.411 35.608C111.627 35.608 110.026 35.168 108.608 34.288C107.19 33.3835 106.066 32.1736 105.235 30.658C104.428 29.118 104.025 27.3825 104.025 25.4514C104.025 23.5203 104.465 21.7848 105.345 20.2448C106.249 18.7048 107.459 17.4948 108.975 16.6148C110.515 15.7104 112.238 15.2581 114.145 15.2581C116.051 15.2581 117.762 15.7104 119.278 16.6148C120.793 17.4948 121.991 18.7048 122.871 20.2448C123.776 21.7848 124.228 23.5203 124.228 25.4514H122.798C122.798 27.3825 122.382 29.118 121.551 30.658C120.745 32.1736 119.632 33.3835 118.215 34.288C116.797 35.168 115.196 35.608 113.411 35.608ZM114.145 32.308C115.391 32.308 116.503 32.0147 117.481 31.428C118.459 30.8169 119.229 29.998 119.791 28.9714C120.353 27.9203 120.635 26.7469 120.635 25.4514C120.635 24.1314 120.353 22.9581 119.791 21.9314C119.229 20.8803 118.459 20.0614 117.481 19.4748C116.503 18.8637 115.391 18.5581 114.145 18.5581C112.922 18.5581 111.81 18.8637 110.808 19.4748C109.83 20.0614 109.048 20.8803 108.461 21.9314C107.899 22.9581 107.618 24.1314 107.618 25.4514C107.618 26.7469 107.899 27.9203 108.461 28.9714C109.048 29.998 109.83 30.8169 110.808 31.428C111.81 32.0147 112.922 32.308 114.145 32.308ZM122.358 35.498C121.82 35.498 121.368 35.3269 121.001 34.9846C120.659 34.618 120.488 34.1658 120.488 33.628V28.018L121.185 24.1314L124.228 25.4514V33.628C124.228 34.1658 124.044 34.618 123.678 34.9846C123.336 35.3269 122.896 35.498 122.358 35.498ZM133.304 35.4613C132.913 35.4613 132.546 35.3513 132.204 35.1313C131.886 34.8869 131.666 34.5935 131.544 34.2513L126.117 17.9714C125.922 17.2137 125.922 16.6026 126.117 16.1381C126.337 15.6492 126.802 15.4048 127.511 15.4048C127.975 15.4048 128.354 15.5392 128.647 15.8081C128.965 16.0526 129.222 16.4804 129.417 17.0915L134.037 31.538H132.754L137.117 16.7981C137.239 16.3826 137.447 16.0526 137.741 15.8081C138.034 15.5392 138.437 15.4048 138.951 15.4048C139.439 15.4048 139.83 15.5392 140.124 15.8081C140.442 16.0526 140.649 16.3826 140.747 16.7981L144.304 30.658H143.754L148.08 17.0915C148.423 15.967 149.058 15.4048 149.987 15.4048C150.672 15.4048 151.136 15.6492 151.38 16.1381C151.625 16.6026 151.613 17.2137 151.344 17.9714L145.917 34.2513C145.819 34.5935 145.612 34.8869 145.294 35.1313C144.976 35.3513 144.609 35.4613 144.194 35.4613C143.803 35.4613 143.436 35.3513 143.094 35.1313C142.752 34.8869 142.532 34.5935 142.434 34.2513L138.657 20.2814H139.024L135.064 34.2513C134.966 34.5935 134.746 34.8869 134.404 35.1313C134.086 35.3513 133.719 35.4613 133.304 35.4613ZM163.004 35.608C161.219 35.608 159.618 35.168 158.201 34.288C156.783 33.3835 155.658 32.1736 154.827 30.658C154.021 29.118 153.617 27.3825 153.617 25.4514C153.617 23.5203 154.057 21.7848 154.937 20.2448C155.842 18.7048 157.052 17.4948 158.567 16.6148C160.107 15.7104 161.831 15.2581 163.737 15.2581C165.644 15.2581 167.355 15.7104 168.871 16.6148C170.386 17.4948 171.584 18.7048 172.464 20.2448C173.368 21.7848 173.821 23.5203 173.821 25.4514H172.391C172.391 27.3825 171.975 29.118 171.144 30.658C170.337 32.1736 169.225 33.3835 167.807 34.288C166.389 35.168 164.788 35.608 163.004 35.608ZM163.737 32.308C164.984 32.308 166.096 32.0147 167.074 31.428C168.052 30.8169 168.822 29.998 169.384 28.9714C169.946 27.9203 170.227 26.7469 170.227 25.4514C170.227 24.1314 169.946 22.9581 169.384 21.9314C168.822 20.8803 168.052 20.0614 167.074 19.4748C166.096 18.8637 164.984 18.5581 163.737 18.5581C162.515 18.5581 161.403 18.8637 160.401 19.4748C159.423 20.0614 158.641 20.8803 158.054 21.9314C157.492 22.9581 157.211 24.1314 157.211 25.4514C157.211 26.7469 157.492 27.9203 158.054 28.9714C158.641 29.998 159.423 30.8169 160.401 31.428C161.403 32.0147 162.515 32.308 163.737 32.308ZM171.951 35.498C171.413 35.498 170.961 35.3269 170.594 34.9846C170.252 34.618 170.081 34.1658 170.081 33.628V28.018L170.777 24.1314L173.821 25.4514V33.628C173.821 34.1658 173.637 34.618 173.271 34.9846C172.928 35.3269 172.488 35.498 171.951 35.498ZM81.2961 65.4613C80.8928 65.4613 80.5536 65.3238 80.2786 65.0488C80.0036 64.7738 79.8661 64.4346 79.8661 64.0313V45.414C79.8661 44.9923 80.0036 44.6531 80.2786 44.3965C80.5536 44.1215 80.8928 43.984 81.2961 43.984C81.7178 43.984 82.0569 44.1215 82.3136 44.3965C82.5886 44.6531 82.7261 44.9923 82.7261 45.414V53.3064H95.486V45.414C95.486 44.9923 95.6235 44.6531 95.8985 44.3965C96.1735 44.1215 96.5126 43.984 96.916 43.984C97.3376 43.984 97.6768 44.1215 97.9335 44.3965C98.1901 44.6531 98.3185 44.9923 98.3185 45.414V64.0313C98.3185 64.4346 98.1901 64.7738 97.9335 65.0488C97.6768 65.3238 97.3376 65.4613 96.916 65.4613C96.5126 65.4613 96.1735 65.3238 95.8985 65.0488C95.6235 64.7738 95.486 64.4346 95.486 64.0313V55.8364H82.7261V64.0313C82.7261 64.4346 82.5886 64.7738 82.3136 65.0488C82.0569 65.3238 81.7178 65.4613 81.2961 65.4613ZM110.613 65.5713C109.092 65.5713 107.735 65.2505 106.543 64.6088C105.37 63.9488 104.444 63.0505 103.766 61.9138C103.106 60.7588 102.776 59.4389 102.776 57.9539C102.776 56.4505 103.088 55.1306 103.711 53.9939C104.353 52.8389 105.233 51.9406 106.351 51.2989C107.469 50.6389 108.753 50.3089 110.201 50.3089C111.631 50.3089 112.859 50.6298 113.886 51.2714C114.913 51.8948 115.692 52.7656 116.223 53.8839C116.773 54.9839 117.048 56.258 117.048 57.7064C117.048 58.0547 116.929 58.348 116.691 58.5864C116.453 58.8064 116.15 58.9164 115.783 58.9164H104.701V56.7164H115.701L114.573 57.4864C114.555 56.5697 114.372 55.7539 114.023 55.0389C113.675 54.3056 113.18 53.7281 112.538 53.3064C111.897 52.8847 111.118 52.6739 110.201 52.6739C109.156 52.6739 108.258 52.9031 107.506 53.3614C106.773 53.8197 106.213 54.4522 105.828 55.2589C105.443 56.0472 105.251 56.9455 105.251 57.9539C105.251 58.9622 105.48 59.8605 105.938 60.6488C106.397 61.4372 107.029 62.0605 107.836 62.5188C108.643 62.9772 109.568 63.2063 110.613 63.2063C111.182 63.2063 111.759 63.1055 112.346 62.9038C112.951 62.6838 113.437 62.4363 113.803 62.1613C114.078 61.9597 114.372 61.8588 114.683 61.8588C115.013 61.8405 115.298 61.9322 115.536 62.1338C115.848 62.4088 116.013 62.7113 116.031 63.0413C116.049 63.3713 115.903 63.6555 115.591 63.8938C114.968 64.3888 114.188 64.7921 113.253 65.1038C112.337 65.4155 111.457 65.5713 110.613 65.5713ZM126.359 65.5713C125.02 65.5713 123.82 65.2413 122.756 64.5813C121.693 63.903 120.85 62.9955 120.226 61.8588C119.621 60.7038 119.319 59.4022 119.319 57.9539C119.319 56.5055 119.649 55.2039 120.309 54.0489C120.987 52.8939 121.895 51.9864 123.031 51.3264C124.186 50.6481 125.479 50.3089 126.909 50.3089C128.339 50.3089 129.622 50.6481 130.759 51.3264C131.895 51.9864 132.794 52.8939 133.454 54.0489C134.132 55.2039 134.471 56.5055 134.471 57.9539H133.399C133.399 59.4022 133.087 60.7038 132.464 61.8588C131.859 62.9955 131.025 63.903 129.961 64.5813C128.898 65.2413 127.697 65.5713 126.359 65.5713ZM126.909 63.0963C127.844 63.0963 128.678 62.8763 129.411 62.4363C130.145 61.978 130.722 61.3638 131.144 60.5938C131.565 59.8055 131.776 58.9255 131.776 57.9539C131.776 56.9639 131.565 56.0839 131.144 55.3139C130.722 54.5256 130.145 53.9114 129.411 53.4714C128.678 53.0131 127.844 52.7839 126.909 52.7839C125.992 52.7839 125.158 53.0131 124.406 53.4714C123.673 53.9114 123.086 54.5256 122.646 55.3139C122.225 56.0839 122.014 56.9639 122.014 57.9539C122.014 58.9255 122.225 59.8055 122.646 60.5938C123.086 61.3638 123.673 61.978 124.406 62.4363C125.158 62.8763 125.992 63.0963 126.909 63.0963ZM133.069 65.4888C132.665 65.4888 132.326 65.3605 132.051 65.1038C131.795 64.8288 131.666 64.4896 131.666 64.0863V59.8789L132.189 56.9639L134.471 57.9539V64.0863C134.471 64.4896 134.334 64.8288 134.059 65.1038C133.802 65.3605 133.472 65.4888 133.069 65.4888ZM142.221 65.4613C141.414 65.4613 140.699 65.2413 140.076 64.8013C139.452 64.3613 138.967 63.7655 138.618 63.0138C138.27 62.2438 138.096 61.3638 138.096 60.3738V45.359C138.096 44.9556 138.224 44.6256 138.481 44.369C138.737 44.1123 139.067 43.984 139.471 43.984C139.874 43.984 140.204 44.1123 140.461 44.369C140.717 44.6256 140.846 44.9556 140.846 45.359V60.3738C140.846 61.0522 140.974 61.6113 141.231 62.0513C141.487 62.4913 141.817 62.7113 142.221 62.7113H142.908C143.275 62.7113 143.568 62.8397 143.788 63.0963C144.027 63.353 144.146 63.683 144.146 64.0863C144.146 64.4896 143.972 64.8196 143.623 65.0763C143.275 65.333 142.826 65.4613 142.276 65.4613H142.221ZM152.363 65.4613C151.446 65.4613 150.621 65.2321 149.888 64.7738C149.155 64.2971 148.577 63.6555 148.155 62.8488C147.734 62.0422 147.523 61.1347 147.523 60.1263V47.009C147.523 46.6056 147.651 46.2756 147.908 46.019C148.165 45.7623 148.495 45.634 148.898 45.634C149.301 45.634 149.631 45.7623 149.888 46.019C150.144 46.2756 150.273 46.6056 150.273 47.009V60.1263C150.273 60.8597 150.474 61.4738 150.878 61.9688C151.281 62.4638 151.776 62.7113 152.363 62.7113H153.298C153.628 62.7113 153.903 62.8397 154.123 63.0963C154.361 63.353 154.48 63.683 154.48 64.0863C154.48 64.4896 154.324 64.8196 154.013 65.0763C153.719 65.333 153.334 65.4613 152.858 65.4613H152.363ZM146.258 53.3339C145.873 53.3339 145.561 53.2239 145.323 53.0039C145.085 52.7839 144.965 52.5089 144.965 52.1789C144.965 51.8123 145.085 51.5189 145.323 51.2989C145.561 51.0789 145.873 50.9689 146.258 50.9689H152.61C152.995 50.9689 153.307 51.0789 153.545 51.2989C153.784 51.5189 153.903 51.8123 153.903 52.1789C153.903 52.5089 153.784 52.7839 153.545 53.0039C153.307 53.2239 152.995 53.3339 152.61 53.3339H146.258ZM159.33 59.9888C158.927 59.9888 158.588 59.8605 158.313 59.6039C158.056 59.3289 157.928 58.9897 157.928 58.5864V45.3865C157.928 44.9648 158.056 44.6256 158.313 44.369C158.588 44.1123 158.927 43.984 159.33 43.984C159.752 43.984 160.091 44.1123 160.348 44.369C160.605 44.6256 160.733 44.9648 160.733 45.3865V58.5864C160.733 58.9897 160.605 59.3289 160.348 59.6039C160.091 59.8605 159.752 59.9888 159.33 59.9888ZM170.633 65.4888C170.229 65.4888 169.89 65.3605 169.615 65.1038C169.359 64.8288 169.23 64.4896 169.23 64.0863V57.3214C169.23 56.2764 169.038 55.4239 168.653 54.7639C168.268 54.1039 167.745 53.6181 167.085 53.3064C166.444 52.9764 165.701 52.8114 164.858 52.8114C164.088 52.8114 163.391 52.9672 162.768 53.2789C162.144 53.5906 161.649 54.0122 161.283 54.5439C160.916 55.0572 160.733 55.6531 160.733 56.3314H159C159 55.1764 159.275 54.1497 159.825 53.2514C160.394 52.3347 161.164 51.6106 162.135 51.0789C163.107 50.5473 164.198 50.2814 165.408 50.2814C166.673 50.2814 167.8 50.5564 168.79 51.1064C169.799 51.6381 170.587 52.4264 171.155 53.4714C171.742 54.5164 172.035 55.7997 172.035 57.3214V64.0863C172.035 64.4896 171.898 64.8288 171.623 65.1038C171.366 65.3605 171.036 65.4888 170.633 65.4888ZM159.33 65.4888C158.927 65.4888 158.588 65.3605 158.313 65.1038C158.056 64.8288 157.928 64.4896 157.928 64.0863V51.8214C157.928 51.3998 158.056 51.0606 158.313 50.8039C158.588 50.5473 158.927 50.4189 159.33 50.4189C159.752 50.4189 160.091 50.5473 160.348 50.8039C160.605 51.0606 160.733 51.3998 160.733 51.8214V64.0863C160.733 64.4896 160.605 64.8288 160.348 65.1038C160.091 65.3605 159.752 65.4888 159.33 65.4888Z" fill="white"/>
<path d="M26.5316 26.4426C26.5316 19.8477 18.3718 26.5347 15.9153 29.4184C14.3326 25.6473 12.6982 22.5822 7.22922 24.5124C1.76021 26.4426 0.473375 34.9679 3.8513 41.7237C7.22922 48.4796 10.5708 54.8806 15.9153 58.0504C20.8985 49.4893 28.425 28.18 26.5316 26.4426ZM26.5316 26.4426C28.864 43.1714 32.3224 71.8838 32.3224 71.8838L43.0995 1.99292L49.0511 40.1956C51.9363 32.4716 53.5543 28.5077 56.4504 29.4184C62.6641 32.3088 59.0098 39.3961 49.0511 54.6724" stroke="#0E6E8E" stroke-width="3.98587" stroke-linecap="round" stroke-linejoin="round"/>
</svg>
